<svg xmlns="http://www.w3.org/2000/svg" width="64" height="64" viewBox="0 0 64 64" fill="none">
  <defs>
    <linearGradient id="backup_gradient" x1="10" y1="10" x2="54" y2="54" gradientUnits="userSpaceOnUse">
      <stop offset="0%" stop-color="#0055FF" /> <stop offset="100%" stop-color="#7B2CBF" /> </linearGradient>

    <linearGradient id="core_gradient" x1="32" y1="24" x2="32" y2="40" gradientUnits="userSpaceOnUse">
      <stop offset="0%" stop-color="#ffffff" />
      <stop offset="100%" stop-color="#dbeaff" />
    </linearGradient>

    <filter id="soft_drop" x="-4" y="-4" width="72" height="72" filterUnits="userSpaceOnUse">
      <feGaussianBlur stdDeviation="1.5" result="blur"/>
      <feComposite in="SourceGraphic" in2="blur" operator="over"/>
    </filter>
  </defs>

  <path 
    d="M32 6C18 6 10 14 10 28V34C10 48 20 56 32 60V6Z" 
    fill="url(#backup_gradient)" 
    fill-opacity="0.9"
  />

  <path 
    d="M32 6C46 6 54 14 54 28V34C54 48 44 56 32 60V30L32 6Z" 
    fill="url(#backup_gradient)" 
  />

  <path 
    d="M54 28C54 20 50 14 44 10" 
    stroke="#ffffff" 
    stroke-width="2" 
    stroke-linecap="round" 
    stroke-opacity="0.3"
  />

  <rect x="22" y="38" width="20" height="4" rx="2" fill="#ffffff" fill-opacity="0.2" />
  
  <rect x="22" y="31" width="20" height="4" rx="2" fill="#ffffff" fill-opacity="0.5" />
  
  <rect x="20" y="22" width="24" height="6" rx="3" fill="url(#core_gradient)" filter="url(#soft_drop)"/>

  <circle cx="48" cy="14" r="5" fill="#00F5D4" stroke="#ffffff" stroke-width="1.5"/>
  
  <path 
    d="M16 20C16 12 24 8 32 8C35 8 38 9 40 10" 
    stroke="#ffffff" 
    stroke-width="1.5" 
    stroke-linecap="round" 
    stroke-opacity="0.2"
  />

</svg>